<svg width="64" height="64" viewBox="0 0 64 64" fill="none" xmlns="http://www.w3.org/2000/svg">
<g clip-path="url(#clip0_107_171)">
<path d="M48.9707 29.2798C53.136 33.4425 53.136 40.1972 48.9707 44.3625L33.8853 59.4478C32.8453 60.4878 31.1547 60.4878 30.1147 59.4478L15.0293 44.3625C10.864 40.1972 10.864 33.4425 15.0293 29.2772C19.1947 25.1118 25.9493 25.1118 30.1147 29.2772L31.9973 31.1625L33.8853 29.2772C38.0507 25.1118 44.8053 25.1118 48.9707 29.2772V29.2798ZM18.8 33.0452C16.72 35.1278 16.72 38.5065 18.8 40.5892L32 53.7892L45.2 40.5892C47.28 38.5065 47.28 35.1278 45.2 33.0452C43.1173 30.9652 39.7387 30.9652 37.6533 33.0505L31.9947 38.6985L26.3413 33.0452C24.2613 30.9652 20.8827 30.9652 18.8 33.0452ZM32 2.6665C37.8933 2.6665 42.6667 7.43984 42.6667 13.3332C42.6667 19.2265 37.8933 23.9998 32 23.9998C26.1067 23.9998 21.3333 19.2265 21.3333 13.3332C21.3333 7.43984 26.1067 2.6665 32 2.6665ZM32 7.99984C29.0533 7.99984 26.6667 10.3865 26.6667 13.3332C26.6667 16.2798 29.0533 18.6665 32 18.6665C34.9467 18.6665 37.3333 16.2798 37.3333 13.3332C37.3333 10.3865 34.9467 7.99984 32 7.99984Z" fill="#BD83AD"/>
</g>
<defs>
<clipPath id="clip0_107_171">
<rect width="64" height="64" fill="white"/>
</clipPath>
</defs>
</svg>
