<svg width="64" height="64" viewBox="0 0 64 64" fill="none" xmlns="http://www.w3.org/2000/svg">
<path d="M52.7075 21.2925L38.7075 7.2925C38.6146 7.19967 38.5042 7.12605 38.3829 7.07586C38.2615 7.02568 38.1314 6.9999 38 7H14C13.2044 7 12.4413 7.31607 11.8787 7.87868C11.3161 8.44129 11 9.20435 11 10V54C11 54.7957 11.3161 55.5587 11.8787 56.1213C12.4413 56.6839 13.2044 57 14 57H50C50.7957 57 51.5587 56.6839 52.1213 56.1213C52.6839 55.5587 53 54.7957 53 54V22C53.0001 21.8686 52.9743 21.7385 52.9241 21.6171C52.8739 21.4958 52.8003 21.3854 52.7075 21.2925ZM39 10.4125L49.585 21H39V10.4125ZM50 55H14C13.7348 55 13.4804 54.8946 13.2929 54.7071C13.1054 54.5196 13 54.2652 13 54V10C13 9.73478 13.1054 9.48043 13.2929 9.29289C13.4804 9.10536 13.7348 9 14 9H37V22C37 22.2652 37.1054 22.5196 37.2929 22.7071C37.4804 22.8946 37.7348 23 38 23H51V54C51 54.2652 50.8946 54.5196 50.7071 54.7071C50.5196 54.8946 50.2652 55 50 55ZM37.315 41.9025C38.5655 40.2927 39.1554 38.2668 38.9646 36.2373C38.7738 34.2078 37.8167 32.3274 36.2881 30.9788C34.7595 29.6302 32.7744 28.915 30.7369 28.9787C28.6995 29.0423 26.7629 29.8802 25.3216 31.3216C23.8802 32.7629 23.0423 34.6995 22.9787 36.7369C22.915 38.7744 23.6302 40.7595 24.9788 42.2881C26.3274 43.8167 28.2078 44.7738 30.2373 44.9646C32.2668 45.1554 34.2927 44.5655 35.9025 43.315L39.2925 46.7075C39.4801 46.8951 39.7346 47.0006 40 47.0006C40.2654 47.0006 40.5199 46.8951 40.7075 46.7075C40.8951 46.5199 41.0006 46.2654 41.0006 46C41.0006 45.7346 40.8951 45.4801 40.7075 45.2925L37.315 41.9025ZM25 37C25 35.8133 25.3519 34.6533 26.0112 33.6666C26.6705 32.6799 27.6075 31.9108 28.7039 31.4567C29.8003 31.0026 31.0067 30.8838 32.1705 31.1153C33.3344 31.3468 34.4035 31.9182 35.2426 32.7574C36.0818 33.5965 36.6532 34.6656 36.8847 35.8295C37.1162 36.9933 36.9974 38.1997 36.5433 39.2961C36.0892 40.3925 35.3201 41.3295 34.3334 41.9888C33.3467 42.6481 32.1867 43 31 43C29.4087 43 27.8826 42.3679 26.7574 41.2426C25.6321 40.1174 25 38.5913 25 37Z" fill="#98AD21"/>
</svg>
