<svg width="64" height="64" viewBox="0 0 64 64" fill="none" xmlns="http://www.w3.org/2000/svg">
<g clip-path="url(#clip0_162_11042)">
<path d="M13.3334 24.0002C14.0406 24.0002 14.7189 24.2811 15.219 24.7812C15.7191 25.2813 16 25.9596 16 26.6668C20.1897 26.6607 24.2586 28.0702 27.5467 30.6668H33.3334C36.888 30.6668 40.08 32.2135 42.2774 34.6668H50.6667C53.1874 34.6661 55.6566 35.38 57.7881 36.7256C59.9196 38.0712 61.626 39.9935 62.7094 42.2695C56.4027 50.5922 46.192 56.0002 34.6667 56.0002C27.2267 56.0002 20.9334 54.3922 15.84 51.5788C15.6535 52.0937 15.3127 52.5384 14.8641 52.8524C14.4155 53.1664 13.8809 53.3344 13.3334 53.3335H5.33335C4.62611 53.3335 3.94783 53.0525 3.44774 52.5525C2.94764 52.0524 2.66669 51.3741 2.66669 50.6668V26.6668C2.66669 25.9596 2.94764 25.2813 3.44774 24.7812C3.94783 24.2811 4.62611 24.0002 5.33335 24.0002H13.3334ZM16.0027 32.0002L16 45.3922L16.12 45.4775C20.9067 48.8375 27.1414 50.6668 34.6667 50.6668C42.6774 50.6668 50.1307 47.5842 55.56 42.3202L55.9147 41.9655L55.5947 41.6988C54.3355 40.7126 52.8091 40.1273 51.2134 40.0188L50.6667 40.0002H45.0374C45.2294 40.8588 45.3334 41.7495 45.3334 42.6668V45.3335H21.3334V40.0002L39.44 39.9975L39.3494 39.7895C38.8383 38.7216 38.0522 37.809 37.0718 37.1454C36.0914 36.4818 34.952 36.0911 33.7707 36.0135L33.3334 36.0002H25.52C24.2809 34.7328 22.8007 33.726 21.1667 33.039C19.5327 32.3521 17.7779 31.9989 16.0054 32.0002H16.0027ZM10.6667 29.3335H8.00002V48.0002H10.6667V29.3335ZM48 13.3335C50.1218 13.3335 52.1566 14.1764 53.6569 15.6766C55.1572 17.1769 56 19.2118 56 21.3335C56 23.4552 55.1572 25.4901 53.6569 26.9904C52.1566 28.4906 50.1218 29.3335 48 29.3335C45.8783 29.3335 43.8435 28.4906 42.3432 26.9904C40.8429 25.4901 40 23.4552 40 21.3335C40 19.2118 40.8429 17.1769 42.3432 15.6766C43.8435 14.1764 45.8783 13.3335 48 13.3335ZM48 18.6668C47.2928 18.6668 46.6145 18.9478 46.1144 19.4479C45.6143 19.948 45.3334 20.6263 45.3334 21.3335C45.3334 22.0407 45.6143 22.719 46.1144 23.2191C46.6145 23.7192 47.2928 24.0002 48 24.0002C48.7073 24.0002 49.3855 23.7192 49.8856 23.2191C50.3857 22.719 50.6667 22.0407 50.6667 21.3335C50.6667 20.6263 50.3857 19.948 49.8856 19.4479C49.3855 18.9478 48.7073 18.6668 48 18.6668ZM29.3334 5.3335C31.4551 5.3335 33.4899 6.17635 34.9902 7.67664C36.4905 9.17693 37.3334 11.2118 37.3334 13.3335C37.3334 15.4552 36.4905 17.4901 34.9902 18.9904C33.4899 20.4906 31.4551 21.3335 29.3334 21.3335C27.2116 21.3335 25.1768 20.4906 23.6765 18.9904C22.1762 17.4901 21.3334 15.4552 21.3334 13.3335C21.3334 11.2118 22.1762 9.17693 23.6765 7.67664C25.1768 6.17635 27.2116 5.3335 29.3334 5.3335ZM29.3334 10.6668C28.6261 10.6668 27.9478 10.9478 27.4477 11.4479C26.9476 11.948 26.6667 12.6263 26.6667 13.3335C26.6667 14.0407 26.9476 14.719 27.4477 15.2191C27.9478 15.7192 28.6261 16.0002 29.3334 16.0002C30.0406 16.0002 30.7189 15.7192 31.219 15.2191C31.7191 14.719 32 14.0407 32 13.3335C32 12.6263 31.7191 11.948 31.219 11.4479C30.7189 10.9478 30.0406 10.6668 29.3334 10.6668Z" fill="#B9A135"/>
</g>
<defs>
<clipPath id="clip0_162_11042">
<rect width="64" height="64" fill="white"/>
</clipPath>
</defs>
</svg>
