<svg width="64" height="64" viewBox="0 0 64 64" fill="none" xmlns="http://www.w3.org/2000/svg">
<path d="M56.975 36.0601C56.35 35.5789 55.6222 35.2489 54.8485 35.0958C54.0748 34.9427 53.2761 34.9707 52.515 35.1776L49.5275 35.8651C55.815 30.4701 59 25.1451 59 20.0001C59 13.9351 54.125 9.0001 48.135 9.0001C46.3281 8.98566 44.5462 9.42261 42.951 10.2713C41.3558 11.12 39.9977 12.3536 39 13.8601C38.0023 12.3536 36.6442 11.12 35.049 10.2713C33.4538 9.42261 31.6719 8.98566 29.865 9.0001C23.875 9.0001 19 13.9351 19 20.0001C19 22.9626 20.0275 25.8601 22.2025 29.0001C20.4442 29.0656 18.7762 29.7955 17.535 31.0426L11.585 37.0001H4C3.20435 37.0001 2.44129 37.3162 1.87868 37.8788C1.31607 38.4414 1 39.2045 1 40.0001V50.0001C1 50.7958 1.31607 51.5588 1.87868 52.1214C2.44129 52.684 3.20435 53.0001 4 53.0001H30C30.0843 53.0007 30.1683 52.9906 30.25 52.9701L46.25 48.9701C46.3011 48.9568 46.3512 48.9401 46.4 48.9201L56.105 44.7851L56.16 44.7601C56.9419 44.3693 57.6115 43.7858 58.1057 43.0647C58.5998 42.3436 58.9023 41.5085 58.9845 40.6383C59.0668 39.768 58.9262 38.891 58.576 38.0901C58.2257 37.2892 57.6773 36.5906 56.9825 36.0601H56.975ZM29.865 11.0001C31.6135 10.9783 33.3287 11.4785 34.7912 12.4369C36.2537 13.3953 37.3971 14.7683 38.075 16.3801C38.1503 16.5635 38.2785 16.7204 38.4432 16.8308C38.6079 16.9412 38.8017 17.0001 39 17.0001C39.1983 17.0001 39.3921 16.9412 39.5568 16.8308C39.7215 16.7204 39.8497 16.5635 39.925 16.3801C40.6029 14.7683 41.7463 13.3953 43.2088 12.4369C44.6713 11.4785 46.3866 10.9783 48.135 11.0001C52.94 11.0001 57 15.1226 57 20.0001C57 25.3176 52.9675 31.0001 45.015 36.9026L40.1875 38.0001C40.7198 37.0899 41.0002 36.0545 41 35.0001C41 33.4088 40.3679 31.8827 39.2426 30.7575C38.1174 29.6322 36.5913 29.0001 35 29.0001H24.6725C22.1725 25.7501 21 22.8751 21 20.0001C21 15.1226 25.06 11.0001 29.865 11.0001ZM3 50.0001V40.0001C3 39.7349 3.10536 39.4805 3.29289 39.293C3.48043 39.1055 3.73478 39.0001 4 39.0001H11V51.0001H4C3.73478 51.0001 3.48043 50.8947 3.29289 50.7072C3.10536 50.5197 3 50.2653 3 50.0001ZM55.2825 42.9576L45.68 47.0501L29.8775 51.0001H13V38.4151L18.95 32.4651C19.413 31.9992 19.9639 31.6298 20.5707 31.3784C21.1775 31.1269 21.8282 30.9983 22.485 31.0001H35C36.0609 31.0001 37.0783 31.4215 37.8284 32.1717C38.5786 32.9218 39 33.9392 39 35.0001C39 36.061 38.5786 37.0784 37.8284 37.8285C37.0783 38.5787 36.0609 39.0001 35 39.0001H28C27.7348 39.0001 27.4804 39.1055 27.2929 39.293C27.1054 39.4805 27 39.7349 27 40.0001C27 40.2653 27.1054 40.5197 27.2929 40.7072C27.4804 40.8947 27.7348 41.0001 28 41.0001H36C36.0757 41.0004 36.1512 40.9921 36.225 40.9751L52.975 37.1226H53.015C53.7656 36.9236 54.5632 37.0088 55.2547 37.3619C55.9463 37.715 56.4831 38.3111 56.7621 39.0358C57.041 39.7604 57.0425 40.5626 56.7662 41.2882C56.4899 42.0139 55.9553 42.612 55.265 42.9676L55.2825 42.9576Z" fill="#98AD21"/>
</svg>
