<svg width="24" height="24" viewBox="0 0 24 24" fill="none" xmlns="http://www.w3.org/2000/svg">
<path d="M7.31995 6.4498L2.14995 11.6498C1.95995 11.8498 1.95995 12.1598 2.14995 12.3598L7.31995 17.5598C7.50995 17.7598 7.82995 17.7598 8.02995 17.5598C8.22995 17.3598 8.22995 17.0498 8.02995 16.8498L3.69995 12.4998H21.4999C21.7799 12.4998 21.9999 12.2798 21.9999 11.9998C21.9999 11.7198 21.7799 11.4998 21.4999 11.4998H3.69995L8.02995 7.1498C8.12995 7.0498 8.17995 6.92981 8.17995 6.79981C8.17995 6.66981 8.12995 6.5398 8.02995 6.4498C7.82995 6.2498 7.51995 6.2498 7.31995 6.4498Z" fill="#6D6D6E" stroke="#6D6D6E" stroke-width="0.25"/>
</svg>
