<svg width="24" height="24" viewBox="0 0 24 24" fill="none" xmlns="http://www.w3.org/2000/svg">
<path d="M16.68 17.55L21.85 12.35C22.04 12.15 22.04 11.84 21.85 11.64L16.68 6.44004C16.49 6.24004 16.17 6.24004 15.97 6.44004C15.77 6.64004 15.77 6.95004 15.97 7.15004L20.3 11.5H2.5C2.22 11.5 2 11.72 2 12C2 12.28 2.22 12.5 2.5 12.5H20.3L15.97 16.85C15.87 16.95 15.82 17.07 15.82 17.2C15.82 17.33 15.87 17.46 15.97 17.55C16.17 17.75 16.48 17.75 16.68 17.55Z" fill="#913177" stroke="#913177" stroke-width="0.25"/>
</svg>
