<svg width="82" height="84" viewBox="0 0 82 84" fill="none" xmlns="http://www.w3.org/2000/svg">
<g clip-path="url(#clip0_0_15)">
<path fill-rule="evenodd" clip-rule="evenodd" d="M15.2065 41.2336C17.6687 41.2336 19.6642 43.254 19.6642 45.7469C19.6642 48.2399 17.6687 50.2603 15.2065 50.2603C12.7443 50.2603 10.7505 48.2399 10.7505 45.7469C10.7505 43.254 12.7459 41.2336 15.2065 41.2336ZM35.0483 0C36.3189 0 37.348 1.04303 37.348 2.32846C37.348 3.61388 36.3189 4.65857 35.0483 4.65857C33.7776 4.65857 32.7486 3.61609 32.7486 2.32846C32.7486 1.04082 33.7782 0 35.0483 0ZM44.4756 1.84311C45.5919 1.84311 46.4967 2.75859 46.4967 3.88886C46.4967 5.01913 45.5919 5.9335 44.4756 5.9335C43.3593 5.9335 42.4562 5.01747 42.4562 3.88886C42.4562 2.76024 43.361 1.84311 44.4756 1.84311ZM45.2189 11.2547L47.5012 11.9498C47.8219 11.4258 48.3939 11.0763 49.0462 11.0763C49.2785 11.0763 49.4988 11.121 49.7033 11.2011L50.8605 9.2702C50.5011 8.97756 50.2715 8.52976 50.2715 8.02729C50.2715 7.14605 50.9767 6.4321 51.847 6.4321C52.7174 6.4321 53.4225 7.14605 53.4225 8.02729C53.4225 8.90854 52.7174 9.62193 51.847 9.62193C51.648 9.62193 51.4593 9.58493 51.2837 9.51702L50.1308 11.4396C50.5748 11.7748 50.8627 12.312 50.8627 12.9156C50.8627 13.9304 50.0496 14.7537 49.0462 14.7537C48.0427 14.7537 47.2313 13.9304 47.2313 12.9156C47.2313 12.74 47.2552 12.5688 47.3011 12.407L45.057 11.724C44.6627 12.5782 43.806 13.1712 42.8134 13.1712C41.4457 13.1712 40.3381 12.0492 40.3381 10.6644C40.3381 9.27959 41.4457 8.15871 42.8134 8.15871C44.1811 8.15871 45.2882 9.28125 45.2882 10.6644C45.2882 10.8687 45.2642 11.0647 45.22 11.2552L45.2189 11.2547ZM25.0909 8.0295L25.9607 11.5385C26.1685 11.4965 26.3833 11.4733 26.6026 11.4733C27.6692 11.4733 28.6143 11.9984 29.2006 12.8062L31.5117 11.3767C31.4207 11.1111 31.3721 10.8245 31.3721 10.5269C31.3721 9.08081 32.5288 7.90803 33.9571 7.90803C35.3853 7.90803 36.542 9.08081 36.542 10.5269C36.542 11.973 35.3853 13.1442 33.9571 13.1442C33.0867 13.1442 32.3156 12.7085 31.8477 12.0409L29.5654 13.4523C29.7317 13.8465 29.8244 14.2805 29.8244 14.7366C29.8244 16.5383 28.382 17.9987 26.6026 17.9987C24.8231 17.9987 23.379 16.5383 23.379 14.7366C23.379 13.4186 24.1501 12.2844 25.2605 11.7698L24.3721 8.1957C24.2788 8.20619 24.1834 8.2095 24.088 8.2095C22.4912 8.2095 21.196 6.89978 21.196 5.28251C21.196 3.66523 22.4912 2.35551 24.088 2.35551C25.6847 2.35551 26.9794 3.66523 26.9794 5.28251C26.9794 6.54254 26.1925 7.61593 25.0903 8.0295H25.0909ZM13.4129 21.5972L16.7542 21.9456C16.9963 20.9163 17.6458 20.0484 18.5195 19.5244L16.3479 15C16.0044 15.1192 15.6352 15.1833 15.2518 15.1833C13.3747 15.1833 11.8537 13.6433 11.8537 11.7428C11.8537 9.84224 13.3747 8.30227 15.2518 8.30227C17.1289 8.30227 18.6493 9.84334 18.6493 11.7428C18.6493 12.9001 18.0859 13.9232 17.221 14.5477L19.4204 19.1318C19.7514 19.0368 20.1015 18.9865 20.4631 18.9865C22.5692 18.9865 24.2761 20.7154 24.2761 22.8472C24.2761 24.9791 22.5686 26.709 20.4631 26.709C18.3575 26.709 16.6942 25.0255 16.65 22.9323L13.2656 22.5789C12.819 24.115 11.4164 25.2348 9.75581 25.2348C7.73477 25.2348 6.09765 23.5766 6.09765 21.5309C6.09765 19.4851 7.73531 17.827 9.75581 17.827C11.7763 17.827 13.414 19.4863 13.414 21.5309L13.4129 21.5977V21.5972ZM48.599 65.6639C47.3681 63.5049 48.0989 60.7447 50.2301 59.499C52.3624 58.2528 55.0886 58.9927 56.3189 61.1505C57.5508 63.3095 56.82 66.0697 54.6877 67.3154C52.5565 68.5616 49.8304 67.8228 48.599 65.6639ZM3.40965 68.8824C2.77432 67.7687 3.15116 66.3441 4.25057 65.7009C5.35162 65.0587 6.75751 65.4403 7.39284 66.554C8.02816 67.6671 7.65133 69.0917 6.55083 69.735C5.45087 70.3771 4.04388 69.9956 3.40965 68.8824ZM0.271198 59.6939C-0.286688 58.7166 0.0443353 57.4654 1.01068 56.9C1.97703 56.3352 3.21278 56.6703 3.77067 57.6493C4.32746 58.6277 3.99644 59.8789 3.03118 60.4427C2.06483 61.0081 0.829084 60.6729 0.271198 59.6939ZM7.94963 54.338L7.4032 51.9891C6.79568 51.9698 6.21053 51.6418 5.88442 51.0692C5.76935 50.8677 5.69573 50.6507 5.66246 50.432L3.43255 50.3829C3.36166 50.8439 3.09226 51.2691 2.66362 51.5198C1.9105 51.9604 0.946333 51.6998 0.511149 50.9367C0.0759651 50.1736 0.335003 49.1979 1.08867 48.7573C1.84179 48.3167 2.80486 48.579 3.24005 49.3415C3.34039 49.5149 3.40256 49.701 3.4331 49.8887L5.65319 49.9378C5.71754 49.3802 6.0322 48.86 6.55028 48.558C7.41792 48.0511 8.52933 48.3515 9.0305 49.2311C9.53113 50.1107 9.23446 51.2349 8.36518 51.7417C8.21467 51.8306 8.05706 51.8947 7.89564 51.935L8.43335 54.2452C9.36043 54.163 10.2957 54.6179 10.7931 55.4887C11.4769 56.6885 11.0712 58.2202 9.88724 58.9126C8.7022 59.6034 7.18942 59.1942 6.50556 57.9944C5.8217 56.7962 6.22744 55.264 7.41138 54.5716C7.5848 54.47 7.7664 54.3916 7.95018 54.338H7.94963ZM15.2561 73.5995L17.8214 71.0822C17.6818 70.9221 17.5559 70.7449 17.4457 70.5522C16.9129 69.6168 16.8889 68.5257 17.2875 67.6069L14.9088 66.2956C14.7261 66.5087 14.5057 66.6948 14.2505 66.8438C13.0137 67.5672 11.4333 67.1382 10.7189 65.8859C10.0045 64.6336 10.4282 63.0317 11.6651 62.3084C12.9019 61.5856 14.4839 62.0147 15.1978 63.267C15.6335 64.0306 15.6444 64.9234 15.3085 65.6683L17.6578 66.9631C17.9114 66.6202 18.2359 66.3221 18.6258 66.0951C20.167 65.1935 22.1384 65.729 23.0273 67.2894C23.9178 68.8498 23.3888 70.8442 21.8477 71.7459C20.7216 72.4046 19.3653 72.2953 18.3706 71.5803L15.7573 74.1451C15.8113 74.2235 15.8637 74.303 15.9116 74.388C16.7095 75.7877 16.2367 77.5784 14.8537 78.3873C13.4701 79.1951 11.7027 78.7164 10.9038 77.315C10.1059 75.9147 10.5793 74.1246 11.9617 73.3168C13.0404 72.6873 14.352 72.8386 15.2561 73.599V73.5995ZM32.7006 77.0549L31.3269 73.9518C30.3256 74.2533 29.2595 74.1174 28.3738 73.6144L25.5893 77.7805C25.8631 78.0234 26.1019 78.3139 26.2944 78.6501C27.2335 80.2967 26.6762 82.4004 25.05 83.3495C23.4248 84.3004 21.3476 83.7361 20.4085 82.0906C19.47 80.4452 20.0268 78.342 21.653 77.3912C22.6423 76.812 23.8006 76.7954 24.7658 77.2421L27.5869 73.0209C27.3399 72.7779 27.1217 72.4969 26.9418 72.1794C25.8871 70.3324 26.5126 67.9708 28.3373 66.9046C30.1615 65.8389 32.4939 66.4717 33.547 68.3187C34.5869 70.1413 33.9925 72.4648 32.2223 73.5498L33.614 76.6938C35.1503 76.3178 36.8103 76.9865 37.6403 78.4431C38.6514 80.2155 38.0509 82.4799 36.302 83.5031C34.552 84.5257 32.3139 83.9194 31.3045 82.1469C30.2934 80.3756 30.8939 78.1101 32.6439 77.0875L32.7011 77.0544L32.7006 77.0549ZM49.0642 52.0068C47.7084 49.6286 48.5139 46.5857 50.8627 45.2125C53.212 43.8398 56.2158 44.6537 57.572 47.0324C58.9294 49.4122 58.1239 52.4535 55.7746 53.8267C53.9341 54.9029 51.6927 54.6356 50.1554 53.3259L42.4682 60.7298C42.49 60.7646 42.5086 60.7988 42.5293 60.8341C43.6833 62.8567 43.0845 65.4182 41.2123 66.7152L42.5877 69.2656C44.5296 68.3882 46.8501 69.1221 47.9369 71.027C49.098 73.0628 48.4086 75.6657 46.398 76.8407C44.3873 78.0162 41.8165 77.3189 40.6555 75.2831C39.6722 73.5598 40.0164 71.4273 41.3655 70.1021L39.8762 67.3408C38.003 67.856 35.9492 67.057 34.9332 65.2741C33.722 63.1499 34.4408 60.4349 36.5376 59.208C38.16 58.26 40.1298 58.4797 41.5013 59.61L49.1858 52.2083C49.1438 52.1415 49.1034 52.0752 49.0642 52.0068ZM52.7981 24.1686C51.5667 26.3275 48.8417 27.0674 46.7094 25.8217C44.5771 24.5744 43.8463 21.8142 45.0777 19.6569C46.3085 17.4979 49.0342 16.758 51.167 18.0054C53.2982 19.2516 54.029 22.0113 52.7981 24.1686ZM78.1457 62.1842C77.5114 63.2979 76.1045 63.6805 75.0045 63.0367C73.9035 62.3934 73.5266 60.9689 74.1625 59.8557C74.7978 58.742 76.2048 58.3605 77.3048 59.0037C78.4042 59.6465 78.781 61.0705 78.1457 62.1842ZM71.8562 69.529C71.2978 70.5074 70.0626 70.8431 69.0962 70.2783C68.1304 69.7134 67.8 68.4622 68.3568 67.4849C68.9146 66.5065 70.1504 66.1708 71.1167 66.7356C72.0831 67.2994 72.4147 68.5506 71.8568 69.529H71.8562ZM63.435 65.4762L61.6998 67.1293C61.9877 67.6732 62.0002 68.3485 61.673 68.9211C61.5574 69.1243 61.4091 69.296 61.2395 69.4351L62.3127 71.4141C62.7414 71.2457 63.2398 71.2689 63.6701 71.519C64.4237 71.9596 64.6811 72.9358 64.246 73.6989C63.8108 74.4614 62.8477 74.7226 62.0946 74.282C61.3415 73.8408 61.0824 72.8662 61.5176 72.1037C61.6174 71.9292 61.7445 71.7818 61.889 71.662L60.8207 69.6908C60.3124 69.9117 59.7098 69.8962 59.1934 69.5942C58.3246 69.0867 58.0274 67.9614 58.5286 67.0824C59.0298 66.2039 60.1412 65.9019 61.0088 66.4104C61.1599 66.4977 61.2929 66.6042 61.4085 66.7251L63.116 65.099C62.5821 64.3255 62.5036 63.2791 63.0004 62.4084C63.6826 61.2102 65.1976 60.7988 66.381 61.4912C67.5644 62.1836 67.9701 63.7159 67.2868 64.9146C66.6029 66.1128 65.0896 66.5236 63.9057 65.8317C63.7322 65.7301 63.5746 65.6109 63.4356 65.4767L63.435 65.4762ZM76.2577 49.4387L72.8215 48.4487C72.7544 48.6513 72.6655 48.849 72.5559 49.0417C72.022 49.9781 71.1009 50.5447 70.1155 50.654L70.1842 53.3949C70.4569 53.449 70.7268 53.549 70.982 53.698C72.2183 54.4208 72.6421 56.0221 71.9282 57.2749C71.2138 58.5272 69.6323 58.9563 68.3955 58.2329C67.1586 57.5096 66.7349 55.9083 67.4493 54.656C67.8845 53.8935 68.6431 53.4358 69.4474 53.359L69.3815 50.6518C68.9615 50.6004 68.5444 50.4657 68.1533 50.2366C66.6122 49.3365 66.0849 47.3405 66.9749 45.7801C67.8638 44.2197 69.8352 43.6857 71.3763 44.5858C72.5025 45.2445 73.0876 46.4879 72.9736 47.7182L76.4737 48.7264C76.5129 48.6403 76.556 48.5541 76.6045 48.4696C77.4035 47.0694 79.1704 46.5895 80.5545 47.3985C81.9374 48.2063 82.4103 49.9964 81.6124 51.3966C80.8135 52.7969 79.0466 53.2767 77.6625 52.4678C76.5854 51.8384 76.0603 50.612 76.2582 49.4392L76.2577 49.4387ZM70.4912 32.4145L68.5236 35.1709C69.2811 35.8975 69.6999 36.9008 69.7109 37.93L74.6653 38.2884C74.7362 37.9273 74.866 37.5717 75.0574 37.2349C75.9965 35.5883 78.0742 35.0246 79.6988 35.9748C81.325 36.9257 81.8818 39.0294 80.9433 40.6743C80.0047 42.3208 77.9264 42.8851 76.3019 41.9343C75.311 41.3551 74.7176 40.3496 74.6173 39.2784L69.5952 38.9162C69.5118 39.2536 69.3798 39.5854 69.1999 39.9023C68.1468 41.7493 65.8138 42.3821 63.9902 41.3153C62.166 40.2491 61.5405 37.8875 62.5947 36.0405C63.6335 34.2184 65.918 33.5785 67.7307 34.5867L69.725 31.795C68.6354 30.6366 68.3775 28.8459 69.2086 27.3899C70.218 25.6185 72.4561 25.0112 74.2056 26.0332C75.9556 27.0575 76.5544 29.323 75.5449 31.0937C74.5339 32.8651 72.2974 33.4724 70.5469 32.4498L70.4912 32.4156V32.4145ZM40.8845 30.5896C39.5272 32.9683 36.524 33.7839 34.1741 32.4106C31.8248 31.0363 31.0193 27.995 32.3766 25.6163C33.7324 23.2376 36.7367 22.4221 39.086 23.7964C40.9265 24.8715 41.8193 26.9719 41.4681 28.974L51.6436 32.0114C51.6627 31.9766 51.6823 31.9424 51.702 31.9071C52.8554 29.8834 55.3438 29.1281 57.391 30.1208L58.8841 27.6394C57.1641 26.3755 56.6297 23.9742 57.7171 22.0693C58.8776 20.0334 61.4489 19.3361 63.4596 20.5111C65.4703 21.6866 66.159 24.29 64.9985 26.3253C64.0153 28.0486 62.0199 28.8128 60.2115 28.2926L58.594 30.9783C59.9716 32.3637 60.3151 34.5641 59.2981 36.3464C58.0874 38.4711 55.4049 39.1978 53.3069 37.9725C51.6856 37.0245 50.8878 35.1869 51.1692 33.4194L40.9958 30.382C40.9604 30.451 40.9227 30.5212 40.8845 30.5891V30.5896ZM26.656 48.4713C29.368 48.4713 31.5679 50.6971 31.5679 53.444C31.5679 56.191 29.368 58.4173 26.656 58.4173C23.944 58.4173 21.743 56.1916 21.743 53.444C21.743 51.2928 23.0927 49.4602 24.9812 48.7678L22.4912 38.3248C22.4519 38.3265 22.4127 38.3265 22.3729 38.3265C20.0644 38.3265 18.1743 36.5231 17.9992 34.2322L15.1313 34.1626C14.9109 36.3034 13.1233 37.972 10.9501 37.972C8.62913 37.972 6.7466 36.0665 6.7466 33.716C6.7466 31.3654 8.62913 29.4599 10.9501 29.4599C12.9166 29.4599 14.5679 30.8265 15.0271 32.6735L18.1323 32.748C18.6296 30.8486 20.3393 29.4472 22.3729 29.4472C24.7942 29.4472 26.758 31.4339 26.758 33.8871C26.758 35.7832 25.5849 37.4011 23.9336 38.0383L26.422 48.4774C26.4995 48.473 26.5769 48.4724 26.6555 48.4724L26.656 48.4713Z" fill="#E9D6E4"/>
</g>
<defs>
<clipPath id="clip0_0_15">
<rect width="82" height="84" fill="white"/>
</clipPath>
</defs>
</svg>
