<svg width="64" height="64" viewBox="0 0 64 64" fill="none" xmlns="http://www.w3.org/2000/svg">
<g clip-path="url(#clip0_107_176)">
<path d="M35.1893 6.04822L43.856 21.0616C44.592 22.3336 44.1547 23.9656 42.88 24.7016L39.4133 26.7015L42.0827 31.3202L37.464 33.9869L34.7973 29.3656L31.3333 31.3682C30.0587 32.1042 28.4267 31.6669 27.6907 30.3922L22.7893 21.9069C17.3173 23.5656 13.3333 28.6536 13.3333 34.6669C13.3333 36.3335 13.64 37.9309 14.1973 39.4029C16.2667 38.0909 18.7093 37.3335 21.3333 37.3335C25.824 37.3335 29.7973 39.5549 32.2133 42.9575L52.7147 31.1202L55.3813 35.7389L34.3733 47.8695C34.5653 48.7709 34.6667 49.7095 34.6667 50.6669C34.6667 51.5816 34.576 52.4722 34.4 53.3335H56V58.6669L10.6667 58.6695C8.992 56.4402 8 53.6695 8 50.6669C8 47.9815 8.79467 45.4802 10.16 43.3869C8.78133 40.7869 8 37.8189 8 34.6669C8 26.6802 13.016 19.8642 20.072 17.2002L19.024 15.3816C17.552 12.8296 18.424 9.56822 20.976 8.09622L27.904 4.09622C30.456 2.62422 33.7173 3.49622 35.1893 6.04822ZM21.3333 42.6669C16.9147 42.6669 13.3333 46.2482 13.3333 50.6669C13.3333 51.6002 13.4933 52.4989 13.7867 53.3335H28.88C29.1733 52.4989 29.3333 51.6002 29.3333 50.6669C29.3333 46.2482 25.752 42.6669 21.3333 42.6669ZM30.5707 8.71489L23.6427 12.7149L30.976 25.4162L37.904 21.4162L30.5707 8.71489Z" fill="#B9A135"/>
</g>
<defs>
<clipPath id="clip0_107_176">
<rect width="64" height="64" fill="white"/>
</clipPath>
</defs>
</svg>
