<svg width="64" height="64" viewBox="0 0 64 64" fill="none" xmlns="http://www.w3.org/2000/svg">
<path d="M56.7075 15.2926L48.7075 7.29255C48.6146 7.19958 48.5043 7.12582 48.3829 7.07549C48.2615 7.02517 48.1314 6.99927 48 6.99927C47.8686 6.99927 47.7385 7.02517 47.6171 7.07549C47.4957 7.12582 47.3854 7.19958 47.2925 7.29255L23.2925 31.2926C23.1997 31.3855 23.126 31.4958 23.0759 31.6172C23.0257 31.7386 22.9999 31.8687 23 32.0001V40C23 40.2653 23.1054 40.5196 23.2929 40.7072C23.4804 40.8947 23.7348 41 24 41H32C32.1314 41.0002 32.2615 40.9744 32.3828 40.9242C32.5042 40.874 32.6146 40.8004 32.7075 40.7076L56.7075 16.7076C56.8005 16.6147 56.8742 16.5044 56.9246 16.383C56.9749 16.2616 57.0008 16.1315 57.0008 16.0001C57.0008 15.8686 56.9749 15.7385 56.9246 15.6171C56.8742 15.4957 56.8005 15.3854 56.7075 15.2926ZM31.585 39H25V32.4151L42 15.4151L48.585 22.0001L31.585 39ZM50 20.5851L43.415 14.0001L48 9.41505L54.585 16.0001L50 20.5851ZM55 32.0001V52C55 52.7957 54.6839 53.5588 54.1213 54.1214C53.5587 54.684 52.7956 55 52 55H12C11.2044 55 10.4413 54.684 9.87868 54.1214C9.31607 53.5588 9 52.7957 9 52V12.0001C9 11.2044 9.31607 10.4413 9.87868 9.87873C10.4413 9.31612 11.2044 9.00005 12 9.00005H32C32.2652 9.00005 32.5196 9.10541 32.7071 9.29295C32.8946 9.48048 33 9.73484 33 10.0001C33 10.2653 32.8946 10.5196 32.7071 10.7072C32.5196 10.8947 32.2652 11.0001 32 11.0001H12C11.7348 11.0001 11.4804 11.1054 11.2929 11.2929C11.1054 11.4805 11 11.7348 11 12.0001V52C11 52.2653 11.1054 52.5196 11.2929 52.7072C11.4804 52.8947 11.7348 53 12 53H52C52.2652 53 52.5196 52.8947 52.7071 52.7072C52.8946 52.5196 53 52.2653 53 52V32.0001C53 31.7348 53.1054 31.4805 53.2929 31.2929C53.4804 31.1054 53.7348 31.0001 54 31.0001C54.2652 31.0001 54.5196 31.1054 54.7071 31.2929C54.8946 31.4805 55 31.7348 55 32.0001Z" fill="#98AD21"/>
</svg>
