<svg width="44" height="44" viewBox="0 0 44 44" fill="none" xmlns="http://www.w3.org/2000/svg">
<path d="M42.625 20.9688H40.9062V15.125C40.9062 14.4868 40.6527 13.8748 40.2015 13.4235C39.7502 12.9723 39.1382 12.7188 38.5 12.7188H35.4062V11C35.4062 10.3618 35.1527 9.74978 34.7015 9.29852C34.2502 8.84727 33.6382 8.59375 33 8.59375H28.875C28.2368 8.59375 27.6248 8.84727 27.1735 9.29852C26.7223 9.74978 26.4688 10.3618 26.4688 11V20.9688H17.5312V11C17.5312 10.3618 17.2777 9.74978 16.8265 9.29852C16.3752 8.84727 15.7632 8.59375 15.125 8.59375H11C10.3618 8.59375 9.74978 8.84727 9.29852 9.29852C8.84727 9.74978 8.59375 10.3618 8.59375 11V12.7188H5.5C4.86182 12.7188 4.24978 12.9723 3.79852 13.4235C3.34727 13.8748 3.09375 14.4868 3.09375 15.125V20.9688H1.375C1.1015 20.9688 0.839193 21.0774 0.645796 21.2708C0.452399 21.4642 0.34375 21.7265 0.34375 22C0.34375 22.2735 0.452399 22.5358 0.645796 22.7292C0.839193 22.9226 1.1015 23.0312 1.375 23.0312H3.09375V28.875C3.09375 29.5132 3.34727 30.1252 3.79852 30.5765C4.24978 31.0277 4.86182 31.2812 5.5 31.2812H8.59375V33C8.59375 33.6382 8.84727 34.2502 9.29852 34.7015C9.74978 35.1527 10.3618 35.4062 11 35.4062H15.125C15.7632 35.4062 16.3752 35.1527 16.8265 34.7015C17.2777 34.2502 17.5312 33.6382 17.5312 33V23.0312H26.4688V33C26.4688 33.6382 26.7223 34.2502 27.1735 34.7015C27.6248 35.1527 28.2368 35.4062 28.875 35.4062H33C33.6382 35.4062 34.2502 35.1527 34.7015 34.7015C35.1527 34.2502 35.4062 33.6382 35.4062 33V31.2812H38.5C39.1382 31.2812 39.7502 31.0277 40.2015 30.5765C40.6527 30.1252 40.9062 29.5132 40.9062 28.875V23.0312H42.625C42.8985 23.0312 43.1608 22.9226 43.3542 22.7292C43.5476 22.5358 43.6562 22.2735 43.6562 22C43.6562 21.7265 43.5476 21.4642 43.3542 21.2708C43.1608 21.0774 42.8985 20.9688 42.625 20.9688ZM5.5 29.2188C5.40883 29.2188 5.3214 29.1825 5.25693 29.1181C5.19247 29.0536 5.15625 28.9662 5.15625 28.875V15.125C5.15625 15.0338 5.19247 14.9464 5.25693 14.8819C5.3214 14.8175 5.40883 14.7812 5.5 14.7812H8.59375V29.2188H5.5ZM15.4688 33C15.4688 33.0912 15.4325 33.1786 15.3681 33.2431C15.3036 33.3075 15.2162 33.3438 15.125 33.3438H11C10.9088 33.3438 10.8214 33.3075 10.7569 33.2431C10.6925 33.1786 10.6562 33.0912 10.6562 33V11C10.6562 10.9088 10.6925 10.8214 10.7569 10.7569C10.8214 10.6925 10.9088 10.6562 11 10.6562H15.125C15.2162 10.6562 15.3036 10.6925 15.3681 10.7569C15.4325 10.8214 15.4688 10.9088 15.4688 11V33ZM33.3438 33C33.3438 33.0912 33.3075 33.1786 33.2431 33.2431C33.1786 33.3075 33.0912 33.3438 33 33.3438H28.875C28.7838 33.3438 28.6964 33.3075 28.6319 33.2431C28.5675 33.1786 28.5312 33.0912 28.5312 33V11C28.5312 10.9088 28.5675 10.8214 28.6319 10.7569C28.6964 10.6925 28.7838 10.6562 28.875 10.6562H33C33.0912 10.6562 33.1786 10.6925 33.2431 10.7569C33.3075 10.8214 33.3438 10.9088 33.3438 11V33ZM38.8438 28.875C38.8438 28.9662 38.8075 29.0536 38.7431 29.1181C38.6786 29.1825 38.5912 29.2188 38.5 29.2188H35.4062V14.7812H38.5C38.5912 14.7812 38.6786 14.8175 38.7431 14.8819C38.8075 14.9464 38.8438 15.0338 38.8438 15.125V28.875Z" fill="#4D678F"/>
</svg>
