<svg width="44" height="44" viewBox="0 0 44 44" fill="none" xmlns="http://www.w3.org/2000/svg">
<path d="M34.4558 9.63703C32.8429 8.00695 30.924 6.71132 28.8093 5.82443C26.6945 4.93754 24.4255 4.47684 22.1323 4.46875H22C17.3504 4.46875 12.8913 6.31579 9.60353 9.60353C6.31579 12.8913 4.46875 17.3504 4.46875 22V31.625C4.46875 32.6278 4.86713 33.5896 5.57625 34.2987C6.28537 35.0079 7.24715 35.4062 8.25 35.4062H11C12.0028 35.4062 12.9646 35.0079 13.6737 34.2987C14.3829 33.5896 14.7812 32.6278 14.7812 31.625V24.75C14.7812 23.7472 14.3829 22.7854 13.6737 22.0763C12.9646 21.3671 12.0028 20.9688 11 20.9688H6.56563C6.82723 17.0534 8.56708 13.3838 11.4328 10.7032C14.2985 8.02257 18.0759 6.53124 22 6.53125H22.1169C26.0245 6.54859 29.7798 8.04897 32.6236 10.7291C35.4673 13.4091 37.1874 17.069 37.4361 20.9688H33C31.9972 20.9688 31.0354 21.3671 30.3263 22.0763C29.6171 22.7854 29.2188 23.7472 29.2188 24.75V31.625C29.2188 32.6278 29.6171 33.5896 30.3263 34.2987C31.0354 35.0079 31.9972 35.4062 33 35.4062H37.4688V35.75C37.4688 36.9352 36.9979 38.0718 36.1599 38.9099C35.3218 39.7479 34.1852 40.2188 33 40.2188H23.375C23.1015 40.2188 22.8392 40.3274 22.6458 40.5208C22.4524 40.7142 22.3438 40.9765 22.3438 41.25C22.3438 41.5235 22.4524 41.7858 22.6458 41.9792C22.8392 42.1726 23.1015 42.2812 23.375 42.2812H33C34.7322 42.2812 36.3934 41.5931 37.6183 40.3683C38.8431 39.1434 39.5312 37.4822 39.5312 35.75V22C39.5399 19.7068 39.096 17.4343 38.2251 15.3129C37.3542 13.1915 36.0733 11.2627 34.4558 9.63703ZM11 23.0312C11.4558 23.0312 11.893 23.2123 12.2153 23.5347C12.5377 23.857 12.7188 24.2942 12.7188 24.75V31.625C12.7188 32.0808 12.5377 32.518 12.2153 32.8403C11.893 33.1627 11.4558 33.3438 11 33.3438H8.25C7.79416 33.3438 7.35699 33.1627 7.03466 32.8403C6.71233 32.518 6.53125 32.0808 6.53125 31.625V23.0312H11ZM31.2812 31.625V24.75C31.2812 24.2942 31.4623 23.857 31.7847 23.5347C32.107 23.2123 32.5442 23.0312 33 23.0312H37.4688V33.3438H33C32.5442 33.3438 32.107 33.1627 31.7847 32.8403C31.4623 32.518 31.2812 32.0808 31.2812 31.625Z" fill="#4D678F"/>
</svg>
