<svg width="44" height="44" viewBox="0 0 44 44" fill="none" xmlns="http://www.w3.org/2000/svg">
<path d="M39.2288 10.2713L33.7288 4.77132C33.5354 4.5782 33.2733 4.46973 33 4.46973C32.7267 4.46973 32.4646 4.5782 32.2712 4.77132L15.7713 21.2713C15.5778 21.4645 15.469 21.7267 15.4688 22.0001V27.5001C15.4688 27.7736 15.5774 28.0359 15.7708 28.2293C15.9642 28.4227 16.2265 28.5313 16.5 28.5313H22C22.2734 28.5311 22.5355 28.4223 22.7288 28.2288L39.2288 11.7288C39.4219 11.5355 39.5303 11.2734 39.5303 11.0001C39.5303 10.7268 39.4219 10.4647 39.2288 10.2713ZM21.572 26.4688H17.5312V22.428L28.875 11.0843L32.9158 15.1251L21.572 26.4688ZM34.375 13.6659L30.3342 9.62507L33 6.95929L37.0408 11.0001L34.375 13.6659ZM38.1562 22.0001V35.7501C38.1562 36.3882 37.9027 37.0003 37.4515 37.4515C37.0002 37.9028 36.3882 38.1563 35.75 38.1563H8.25C7.61182 38.1563 6.99978 37.9028 6.54852 37.4515C6.09727 37.0003 5.84375 36.3882 5.84375 35.7501V8.25007C5.84375 7.61189 6.09727 6.99985 6.54852 6.54859C6.99978 6.09733 7.61182 5.84382 8.25 5.84382H22C22.2735 5.84382 22.5358 5.95247 22.7292 6.14587C22.9226 6.33926 23.0312 6.60156 23.0312 6.87507C23.0312 7.14857 22.9226 7.41088 22.7292 7.60427C22.5358 7.79767 22.2735 7.90632 22 7.90632H8.25C8.15883 7.90632 8.0714 7.94254 8.00693 8.007C7.94247 8.07147 7.90625 8.1589 7.90625 8.25007V35.7501C7.90625 35.8412 7.94247 35.9287 8.00693 35.9931C8.0714 36.0576 8.15883 36.0938 8.25 36.0938H35.75C35.8412 36.0938 35.9286 36.0576 35.9931 35.9931C36.0575 35.9287 36.0938 35.8412 36.0938 35.7501V22.0001C36.0938 21.7266 36.2024 21.4643 36.3958 21.2709C36.5892 21.0775 36.8515 20.9688 37.125 20.9688C37.3985 20.9688 37.6608 21.0775 37.8542 21.2709C38.0476 21.4643 38.1562 21.7266 38.1562 22.0001Z" fill="#4D678F"/>
</svg>
