<svg width="44" height="44" viewBox="0 0 44 44" fill="none" xmlns="http://www.w3.org/2000/svg">
<path d="M27.6976 12.4867C29.581 11.649 31.1814 10.2836 32.3054 8.55572C33.4294 6.82781 34.0288 4.81131 34.0312 2.75C34.0312 2.4765 33.9225 2.21419 33.7291 2.0208C33.5357 1.8274 33.2734 1.71875 32.9999 1.71875H31.6249C29.6094 1.72083 27.6357 2.29373 25.9323 3.37113C24.2289 4.44853 22.8655 5.98635 21.9999 7.80656C21.1344 5.98635 19.771 4.44853 18.0676 3.37113C16.3642 2.29373 14.3905 1.72083 12.3749 1.71875H10.9999C10.7264 1.71875 10.4641 1.8274 10.2707 2.0208C10.0773 2.21419 9.96869 2.4765 9.96869 2.75C9.96869 3.0235 10.0773 3.28581 10.2707 3.4792C10.4641 3.6726 10.7264 3.78125 10.9999 3.78125H12.3749C14.4824 3.7839 16.5156 4.55992 18.0889 5.96212C19.6621 7.36432 20.6661 9.29517 20.9103 11.3884C17.302 11.6575 13.9181 13.2415 11.4002 15.8399C8.88223 18.4383 7.40548 21.8704 7.24999 25.4853C7.09449 29.1002 8.27107 32.6465 10.5566 35.4515C12.8421 38.2565 16.0775 40.1252 19.6493 40.7032C23.2211 41.2811 26.8807 40.5281 29.9342 38.587C32.9877 36.6459 35.2226 33.6517 36.2151 30.1722C37.2075 26.6928 36.8885 22.9701 35.3185 19.7102C33.7486 16.4503 31.0368 13.88 27.6976 12.4867ZM31.6249 3.78125H31.9068C31.6522 5.86569 30.6443 7.78511 29.0729 9.17803C27.5014 10.5709 25.4749 11.3412 23.3749 11.3438H23.0931C23.3476 9.25931 24.3556 7.33989 25.927 5.94697C27.4985 4.55406 29.525 3.7838 31.6249 3.78125ZM21.9999 38.8438C19.4844 38.8438 17.0254 38.0978 14.9338 36.7003C12.8422 35.3027 11.212 33.3163 10.2493 30.9923C9.2867 28.6682 9.03482 26.1109 9.52558 23.6437C10.0163 21.1765 11.2277 18.9102 13.0064 17.1315C14.7852 15.3527 17.0514 14.1414 19.5186 13.6506C21.9858 13.1599 24.5431 13.4118 26.8672 14.3744C29.1912 15.3371 31.1776 16.9673 32.5752 19.0588C33.9727 21.1504 34.7187 23.6095 34.7187 26.125C34.7146 29.497 33.3733 32.7297 30.9889 35.114C28.6046 37.4983 25.3719 38.8397 21.9999 38.8438ZM31.2674 27.6719C30.9259 29.5945 30.0023 31.3658 28.6215 32.7466C27.2408 34.1274 25.4694 35.0509 23.5468 35.3925C23.4899 35.4013 23.4325 35.4059 23.3749 35.4062C23.1157 35.4073 22.8655 35.3106 22.6743 35.1355C22.4831 34.9603 22.3649 34.7196 22.3432 34.4612C22.3215 34.2028 22.398 33.9458 22.5573 33.7412C22.7167 33.5367 22.9472 33.3997 23.2031 33.3575C24.7049 33.0916 26.0887 32.3706 27.1671 31.2922C28.2456 30.2137 28.9666 28.8299 29.2324 27.3281C29.278 27.0583 29.4289 26.8176 29.652 26.659C29.7624 26.5805 29.8873 26.5245 30.0194 26.4942C30.1514 26.4639 30.2882 26.4599 30.4218 26.4825C30.5554 26.5051 30.6833 26.5537 30.7981 26.6257C30.9129 26.6977 31.0124 26.7916 31.091 26.9021C31.1695 27.0125 31.2255 27.1373 31.2558 27.2694C31.286 27.4015 31.29 27.5383 31.2674 27.6719Z" fill="#4D678F"/>
</svg>
